<mxfile host="app.diagrams.net" modified="2023-05-05T07:29:02.251Z" agent="Mozilla/5.0 (Windows NT 10.0; Win64; x64) AppleWebKit/537.36 (KHTML, like Gecko) Chrome/112.0.0.0 Safari/537.36" etag="Rj37qVf8dFCnlMoTsGcf" version="21.2.9" type="github" pages="5">
  <diagram name="第 1 页" id="wIRMe-s_Gl-oYLE8g8nR">
    <mxGraphModel dx="2074" dy="1060" grid="1" gridSize="10" guides="1" tooltips="1" connect="1" arrows="1" fold="1" page="0" pageScale="1" pageWidth="827" pageHeight="1169" math="0" shadow="0">
      <root>
        <mxCell id="0" />
        <mxCell id="1" parent="0" />
        <mxCell id="qrg42Uozh6qfRvUPrSkR-20" style="edgeStyle=orthogonalEdgeStyle;rounded=0;orthogonalLoop=1;jettySize=auto;html=1;fontSize=14;fontFamily=Lucida Console;strokeWidth=2;" parent="1" source="qrg42Uozh6qfRvUPrSkR-1" edge="1">
          <mxGeometry relative="1" as="geometry">
            <mxPoint x="200" y="410" as="targetPoint" />
          </mxGeometry>
        </mxCell>
        <mxCell id="qrg42Uozh6qfRvUPrSkR-1" value="Prev" style="rounded=1;whiteSpace=wrap;html=1;fontFamily=Lucida Console;fontSize=14;strokeWidth=2;" parent="1" vertex="1">
          <mxGeometry x="170" y="270" width="60" height="40" as="geometry" />
        </mxCell>
        <mxCell id="qrg42Uozh6qfRvUPrSkR-2" value="Item" style="rounded=1;whiteSpace=wrap;html=1;fontFamily=Lucida Console;fontSize=14;strokeWidth=2;" parent="1" vertex="1">
          <mxGeometry x="230" y="270" width="60" height="40" as="geometry" />
        </mxCell>
        <mxCell id="qrg42Uozh6qfRvUPrSkR-23" style="edgeStyle=orthogonalEdgeStyle;rounded=0;orthogonalLoop=1;jettySize=auto;html=1;fontSize=14;fontFamily=Lucida Console;strokeWidth=2;" parent="1" source="qrg42Uozh6qfRvUPrSkR-3" target="qrg42Uozh6qfRvUPrSkR-8" edge="1">
          <mxGeometry relative="1" as="geometry">
            <Array as="points">
              <mxPoint x="320" y="210" />
              <mxPoint x="504" y="210" />
            </Array>
          </mxGeometry>
        </mxCell>
        <mxCell id="qrg42Uozh6qfRvUPrSkR-3" value="Next" style="rounded=1;whiteSpace=wrap;html=1;fontFamily=Lucida Console;fontSize=14;strokeWidth=2;" parent="1" vertex="1">
          <mxGeometry x="290" y="270" width="60" height="40" as="geometry" />
        </mxCell>
        <mxCell id="qrg42Uozh6qfRvUPrSkR-22" style="edgeStyle=orthogonalEdgeStyle;rounded=0;orthogonalLoop=1;jettySize=auto;html=1;entryX=0.5;entryY=1;entryDx=0;entryDy=0;fontSize=14;fontFamily=Lucida Console;strokeWidth=2;" parent="1" source="qrg42Uozh6qfRvUPrSkR-7" target="qrg42Uozh6qfRvUPrSkR-2" edge="1">
          <mxGeometry relative="1" as="geometry">
            <Array as="points">
              <mxPoint x="444" y="400" />
              <mxPoint x="260" y="400" />
            </Array>
          </mxGeometry>
        </mxCell>
        <mxCell id="qrg42Uozh6qfRvUPrSkR-7" value="Prev" style="rounded=1;whiteSpace=wrap;html=1;fontFamily=Lucida Console;fontSize=14;strokeWidth=2;" parent="1" vertex="1">
          <mxGeometry x="414" y="270" width="60" height="40" as="geometry" />
        </mxCell>
        <mxCell id="qrg42Uozh6qfRvUPrSkR-8" value="Item" style="rounded=1;whiteSpace=wrap;html=1;fontFamily=Lucida Console;fontSize=14;strokeWidth=2;" parent="1" vertex="1">
          <mxGeometry x="474" y="270" width="60" height="40" as="geometry" />
        </mxCell>
        <mxCell id="qrg42Uozh6qfRvUPrSkR-24" style="edgeStyle=orthogonalEdgeStyle;rounded=0;orthogonalLoop=1;jettySize=auto;html=1;entryX=0.5;entryY=0;entryDx=0;entryDy=0;fontSize=14;fontFamily=Lucida Console;strokeWidth=2;" parent="1" source="qrg42Uozh6qfRvUPrSkR-9" target="qrg42Uozh6qfRvUPrSkR-11" edge="1">
          <mxGeometry relative="1" as="geometry">
            <Array as="points">
              <mxPoint x="564" y="210" />
              <mxPoint x="737" y="210" />
            </Array>
          </mxGeometry>
        </mxCell>
        <mxCell id="qrg42Uozh6qfRvUPrSkR-9" value="Next" style="rounded=1;whiteSpace=wrap;html=1;fontFamily=Lucida Console;fontSize=14;strokeWidth=2;" parent="1" vertex="1">
          <mxGeometry x="534" y="270" width="60" height="40" as="geometry" />
        </mxCell>
        <mxCell id="qrg42Uozh6qfRvUPrSkR-25" style="edgeStyle=orthogonalEdgeStyle;rounded=0;orthogonalLoop=1;jettySize=auto;html=1;entryX=0.5;entryY=1;entryDx=0;entryDy=0;fontSize=14;fontFamily=Lucida Console;strokeWidth=2;" parent="1" source="qrg42Uozh6qfRvUPrSkR-10" target="qrg42Uozh6qfRvUPrSkR-8" edge="1">
          <mxGeometry relative="1" as="geometry">
            <Array as="points">
              <mxPoint x="677" y="400" />
              <mxPoint x="504" y="400" />
            </Array>
          </mxGeometry>
        </mxCell>
        <mxCell id="qrg42Uozh6qfRvUPrSkR-10" value="Prev" style="rounded=1;whiteSpace=wrap;html=1;fontFamily=Lucida Console;fontSize=14;strokeWidth=2;" parent="1" vertex="1">
          <mxGeometry x="647" y="270" width="60" height="40" as="geometry" />
        </mxCell>
        <mxCell id="qrg42Uozh6qfRvUPrSkR-11" value="Item" style="rounded=1;whiteSpace=wrap;html=1;fontFamily=Lucida Console;fontSize=14;strokeWidth=2;" parent="1" vertex="1">
          <mxGeometry x="707" y="270" width="60" height="40" as="geometry" />
        </mxCell>
        <mxCell id="qrg42Uozh6qfRvUPrSkR-30" style="edgeStyle=orthogonalEdgeStyle;rounded=0;orthogonalLoop=1;jettySize=auto;html=1;fontSize=14;fontFamily=Lucida Console;strokeWidth=2;" parent="1" source="qrg42Uozh6qfRvUPrSkR-12" target="qrg42Uozh6qfRvUPrSkR-14" edge="1">
          <mxGeometry relative="1" as="geometry">
            <Array as="points">
              <mxPoint x="797" y="210" />
              <mxPoint x="1057" y="210" />
            </Array>
          </mxGeometry>
        </mxCell>
        <mxCell id="qrg42Uozh6qfRvUPrSkR-12" value="Next" style="rounded=1;whiteSpace=wrap;html=1;fontFamily=Lucida Console;fontSize=14;strokeWidth=2;" parent="1" vertex="1">
          <mxGeometry x="767" y="270" width="60" height="40" as="geometry" />
        </mxCell>
        <mxCell id="qrg42Uozh6qfRvUPrSkR-31" style="edgeStyle=orthogonalEdgeStyle;rounded=0;orthogonalLoop=1;jettySize=auto;html=1;entryX=0.5;entryY=1;entryDx=0;entryDy=0;fontSize=14;fontFamily=Lucida Console;strokeWidth=2;" parent="1" source="qrg42Uozh6qfRvUPrSkR-13" target="qrg42Uozh6qfRvUPrSkR-11" edge="1">
          <mxGeometry relative="1" as="geometry">
            <Array as="points">
              <mxPoint x="997" y="400" />
              <mxPoint x="737" y="400" />
            </Array>
          </mxGeometry>
        </mxCell>
        <mxCell id="qrg42Uozh6qfRvUPrSkR-13" value="Prev" style="rounded=1;whiteSpace=wrap;html=1;fontFamily=Lucida Console;fontSize=14;strokeWidth=2;" parent="1" vertex="1">
          <mxGeometry x="967" y="270" width="60" height="40" as="geometry" />
        </mxCell>
        <mxCell id="qrg42Uozh6qfRvUPrSkR-14" value="Item" style="rounded=1;whiteSpace=wrap;html=1;fontFamily=Lucida Console;fontSize=14;strokeWidth=2;" parent="1" vertex="1">
          <mxGeometry x="1027" y="270" width="60" height="40" as="geometry" />
        </mxCell>
        <mxCell id="qrg42Uozh6qfRvUPrSkR-36" style="edgeStyle=orthogonalEdgeStyle;rounded=0;orthogonalLoop=1;jettySize=auto;html=1;fontSize=14;fontFamily=Lucida Console;strokeWidth=2;" parent="1" source="qrg42Uozh6qfRvUPrSkR-15" edge="1">
          <mxGeometry relative="1" as="geometry">
            <mxPoint x="1117" y="160" as="targetPoint" />
          </mxGeometry>
        </mxCell>
        <mxCell id="qrg42Uozh6qfRvUPrSkR-15" value="Next" style="rounded=1;whiteSpace=wrap;html=1;fontFamily=Lucida Console;fontSize=14;strokeWidth=2;" parent="1" vertex="1">
          <mxGeometry x="1087" y="270" width="60" height="40" as="geometry" />
        </mxCell>
        <mxCell id="qrg42Uozh6qfRvUPrSkR-16" value="......" style="text;html=1;strokeColor=none;fillColor=none;align=center;verticalAlign=middle;whiteSpace=wrap;rounded=0;fontSize=14;fontFamily=Lucida Console;strokeWidth=2;" parent="1" vertex="1">
          <mxGeometry x="870" y="270" width="60" height="40" as="geometry" />
        </mxCell>
        <mxCell id="qrg42Uozh6qfRvUPrSkR-18" value="" style="endArrow=classic;html=1;rounded=0;entryX=0.5;entryY=1;entryDx=0;entryDy=0;fontSize=14;fontFamily=Lucida Console;strokeWidth=2;" parent="1" target="qrg42Uozh6qfRvUPrSkR-2" edge="1">
          <mxGeometry width="50" height="50" relative="1" as="geometry">
            <mxPoint x="260" y="450" as="sourcePoint" />
            <mxPoint x="260" y="330" as="targetPoint" />
          </mxGeometry>
        </mxCell>
        <mxCell id="qrg42Uozh6qfRvUPrSkR-19" value="First" style="text;html=1;strokeColor=none;fillColor=none;align=center;verticalAlign=middle;whiteSpace=wrap;rounded=0;fontFamily=Lucida Console;fontSize=14;strokeWidth=2;" parent="1" vertex="1">
          <mxGeometry x="230" y="450" width="60" height="30" as="geometry" />
        </mxCell>
        <mxCell id="qrg42Uozh6qfRvUPrSkR-21" value="Null" style="text;html=1;strokeColor=none;fillColor=none;align=center;verticalAlign=middle;whiteSpace=wrap;rounded=0;fontSize=14;fontFamily=Lucida Console;strokeWidth=2;" parent="1" vertex="1">
          <mxGeometry x="170" y="420" width="60" height="30" as="geometry" />
        </mxCell>
        <mxCell id="qrg42Uozh6qfRvUPrSkR-26" value="Node1" style="text;html=1;strokeColor=none;fillColor=none;align=center;verticalAlign=middle;whiteSpace=wrap;rounded=0;fontFamily=Lucida Console;fontSize=14;strokeWidth=2;" parent="1" vertex="1">
          <mxGeometry x="230" y="160" width="60" height="30" as="geometry" />
        </mxCell>
        <mxCell id="qrg42Uozh6qfRvUPrSkR-27" value="Node2" style="text;html=1;strokeColor=none;fillColor=none;align=center;verticalAlign=middle;whiteSpace=wrap;rounded=0;fontFamily=Lucida Console;fontSize=14;strokeWidth=2;" parent="1" vertex="1">
          <mxGeometry x="500" y="160" width="60" height="30" as="geometry" />
        </mxCell>
        <mxCell id="qrg42Uozh6qfRvUPrSkR-28" value="Node3" style="text;html=1;strokeColor=none;fillColor=none;align=center;verticalAlign=middle;whiteSpace=wrap;rounded=0;fontFamily=Lucida Console;fontSize=14;strokeWidth=2;" parent="1" vertex="1">
          <mxGeometry x="700" y="160" width="60" height="30" as="geometry" />
        </mxCell>
        <mxCell id="qrg42Uozh6qfRvUPrSkR-29" value="Noden" style="text;html=1;strokeColor=none;fillColor=none;align=center;verticalAlign=middle;whiteSpace=wrap;rounded=0;fontFamily=Lucida Console;fontSize=14;strokeWidth=2;" parent="1" vertex="1">
          <mxGeometry x="1037" y="160" width="60" height="30" as="geometry" />
        </mxCell>
        <mxCell id="qrg42Uozh6qfRvUPrSkR-33" value="" style="endArrow=classic;html=1;rounded=0;entryX=0.5;entryY=1;entryDx=0;entryDy=0;fontSize=14;fontFamily=Lucida Console;strokeWidth=2;" parent="1" edge="1">
          <mxGeometry width="50" height="50" relative="1" as="geometry">
            <mxPoint x="1057" y="430" as="sourcePoint" />
            <mxPoint x="1056.5" y="310" as="targetPoint" />
          </mxGeometry>
        </mxCell>
        <mxCell id="qrg42Uozh6qfRvUPrSkR-35" value="Last" style="text;html=1;strokeColor=none;fillColor=none;align=center;verticalAlign=middle;whiteSpace=wrap;rounded=0;fontFamily=Lucida Console;fontSize=14;strokeWidth=2;" parent="1" vertex="1">
          <mxGeometry x="1027" y="430" width="60" height="30" as="geometry" />
        </mxCell>
        <mxCell id="qrg42Uozh6qfRvUPrSkR-37" value="Null" style="text;html=1;strokeColor=none;fillColor=none;align=center;verticalAlign=middle;whiteSpace=wrap;rounded=0;fontSize=14;fontFamily=Lucida Console;strokeWidth=2;" parent="1" vertex="1">
          <mxGeometry x="1087" y="130" width="60" height="30" as="geometry" />
        </mxCell>
      </root>
    </mxGraphModel>
  </diagram>
  <diagram id="QfgXBux2_X3bpuQgBIrw" name="第 2 页">
    <mxGraphModel dx="2074" dy="1116" grid="1" gridSize="10" guides="1" tooltips="1" connect="1" arrows="1" fold="1" page="1" pageScale="1" pageWidth="827" pageHeight="1169" math="0" shadow="0">
      <root>
        <mxCell id="0" />
        <mxCell id="1" parent="0" />
        <mxCell id="dg6ZHdE0oC0c4fAQFHmU-4" style="edgeStyle=orthogonalEdgeStyle;rounded=0;orthogonalLoop=1;jettySize=auto;html=1;fontFamily=Lucida Console;fontSize=14;" parent="1" source="dg6ZHdE0oC0c4fAQFHmU-1" target="dg6ZHdE0oC0c4fAQFHmU-3" edge="1">
          <mxGeometry relative="1" as="geometry" />
        </mxCell>
        <mxCell id="dg6ZHdE0oC0c4fAQFHmU-1" value="开始" style="rounded=1;whiteSpace=wrap;html=1;fontSize=14;fontFamily=Lucida Console;" parent="1" vertex="1">
          <mxGeometry x="80" y="150" width="70" height="40" as="geometry" />
        </mxCell>
        <mxCell id="dg6ZHdE0oC0c4fAQFHmU-7" style="edgeStyle=orthogonalEdgeStyle;rounded=0;orthogonalLoop=1;jettySize=auto;html=1;fontSize=14;fontFamily=Lucida Console;" parent="1" source="dg6ZHdE0oC0c4fAQFHmU-3" target="dg6ZHdE0oC0c4fAQFHmU-6" edge="1">
          <mxGeometry relative="1" as="geometry" />
        </mxCell>
        <mxCell id="dg6ZHdE0oC0c4fAQFHmU-3" value="hash()" style="rounded=1;whiteSpace=wrap;html=1;fontSize=14;fontFamily=Lucida Console;" parent="1" vertex="1">
          <mxGeometry x="260" y="150" width="70" height="40" as="geometry" />
        </mxCell>
        <mxCell id="dg6ZHdE0oC0c4fAQFHmU-5" value="计算key的hash值" style="text;html=1;strokeColor=none;fillColor=none;align=center;verticalAlign=middle;whiteSpace=wrap;rounded=0;fontFamily=Lucida Console;fontSize=14;" parent="1" vertex="1">
          <mxGeometry x="160" y="180" width="80" height="30" as="geometry" />
        </mxCell>
        <mxCell id="dg6ZHdE0oC0c4fAQFHmU-13" style="edgeStyle=orthogonalEdgeStyle;rounded=0;orthogonalLoop=1;jettySize=auto;html=1;fontSize=14;fontFamily=Lucida Console;" parent="1" source="dg6ZHdE0oC0c4fAQFHmU-6" target="dg6ZHdE0oC0c4fAQFHmU-10" edge="1">
          <mxGeometry relative="1" as="geometry" />
        </mxCell>
        <mxCell id="dg6ZHdE0oC0c4fAQFHmU-15" style="edgeStyle=orthogonalEdgeStyle;rounded=0;orthogonalLoop=1;jettySize=auto;html=1;fontSize=14;fontFamily=Lucida Console;" parent="1" source="dg6ZHdE0oC0c4fAQFHmU-6" target="dg6ZHdE0oC0c4fAQFHmU-12" edge="1">
          <mxGeometry relative="1" as="geometry" />
        </mxCell>
        <mxCell id="dg6ZHdE0oC0c4fAQFHmU-6" value="判断该位置的元素是否为null" style="rhombus;whiteSpace=wrap;html=1;fontSize=14;fontFamily=Lucida Console;" parent="1" vertex="1">
          <mxGeometry x="440" y="130" width="90" height="80" as="geometry" />
        </mxCell>
        <mxCell id="dg6ZHdE0oC0c4fAQFHmU-8" value="根据hash值计算当前元素的位置" style="text;html=1;strokeColor=none;fillColor=none;align=center;verticalAlign=middle;whiteSpace=wrap;rounded=0;fontFamily=Lucida Console;fontSize=14;" parent="1" vertex="1">
          <mxGeometry x="340" y="180" width="80" height="40" as="geometry" />
        </mxCell>
        <mxCell id="dg6ZHdE0oC0c4fAQFHmU-29" style="edgeStyle=orthogonalEdgeStyle;rounded=0;orthogonalLoop=1;jettySize=auto;html=1;fontSize=14;fontFamily=Lucida Console;" parent="1" source="dg6ZHdE0oC0c4fAQFHmU-10" target="dg6ZHdE0oC0c4fAQFHmU-28" edge="1">
          <mxGeometry relative="1" as="geometry" />
        </mxCell>
        <mxCell id="dg6ZHdE0oC0c4fAQFHmU-10" value="直接添加到桶里" style="rounded=1;whiteSpace=wrap;html=1;fontSize=14;fontFamily=Lucida Console;" parent="1" vertex="1">
          <mxGeometry x="610" y="150" width="110" height="40" as="geometry" />
        </mxCell>
        <mxCell id="dg6ZHdE0oC0c4fAQFHmU-18" style="edgeStyle=orthogonalEdgeStyle;rounded=0;orthogonalLoop=1;jettySize=auto;html=1;fontSize=14;fontFamily=Lucida Console;" parent="1" source="dg6ZHdE0oC0c4fAQFHmU-12" target="dg6ZHdE0oC0c4fAQFHmU-17" edge="1">
          <mxGeometry relative="1" as="geometry" />
        </mxCell>
        <mxCell id="dg6ZHdE0oC0c4fAQFHmU-30" style="edgeStyle=orthogonalEdgeStyle;rounded=0;orthogonalLoop=1;jettySize=auto;html=1;fontSize=14;fontFamily=Lucida Console;" parent="1" source="dg6ZHdE0oC0c4fAQFHmU-12" target="dg6ZHdE0oC0c4fAQFHmU-20" edge="1">
          <mxGeometry relative="1" as="geometry" />
        </mxCell>
        <mxCell id="dg6ZHdE0oC0c4fAQFHmU-12" value="equals()" style="rhombus;whiteSpace=wrap;html=1;fontSize=14;fontFamily=Lucida Console;" parent="1" vertex="1">
          <mxGeometry x="440" y="300" width="90" height="80" as="geometry" />
        </mxCell>
        <mxCell id="dg6ZHdE0oC0c4fAQFHmU-14" value="true" style="text;html=1;strokeColor=none;fillColor=none;align=center;verticalAlign=middle;whiteSpace=wrap;rounded=0;fontSize=14;fontFamily=Lucida Console;" parent="1" vertex="1">
          <mxGeometry x="533" y="140" width="60" height="30" as="geometry" />
        </mxCell>
        <mxCell id="dg6ZHdE0oC0c4fAQFHmU-16" value="false" style="text;html=1;strokeColor=none;fillColor=none;align=center;verticalAlign=middle;whiteSpace=wrap;rounded=0;fontSize=14;fontFamily=Lucida Console;" parent="1" vertex="1">
          <mxGeometry x="480" y="240" width="60" height="30" as="geometry" />
        </mxCell>
        <mxCell id="dg6ZHdE0oC0c4fAQFHmU-47" style="edgeStyle=orthogonalEdgeStyle;rounded=0;orthogonalLoop=1;jettySize=auto;html=1;" parent="1" source="dg6ZHdE0oC0c4fAQFHmU-17" target="dg6ZHdE0oC0c4fAQFHmU-19" edge="1">
          <mxGeometry relative="1" as="geometry" />
        </mxCell>
        <mxCell id="dg6ZHdE0oC0c4fAQFHmU-17" value="将当前元素替换之前的元素" style="rounded=1;whiteSpace=wrap;html=1;fontSize=14;fontFamily=Lucida Console;" parent="1" vertex="1">
          <mxGeometry x="240" y="320" width="120" height="40" as="geometry" />
        </mxCell>
        <mxCell id="dg6ZHdE0oC0c4fAQFHmU-19" value="return 原来的元素" style="rounded=1;whiteSpace=wrap;html=1;fontSize=14;fontFamily=Lucida Console;" parent="1" vertex="1">
          <mxGeometry x="35" y="320" width="140" height="40" as="geometry" />
        </mxCell>
        <mxCell id="dg6ZHdE0oC0c4fAQFHmU-31" style="edgeStyle=orthogonalEdgeStyle;rounded=0;orthogonalLoop=1;jettySize=auto;html=1;fontSize=14;fontFamily=Lucida Console;" parent="1" source="dg6ZHdE0oC0c4fAQFHmU-20" target="dg6ZHdE0oC0c4fAQFHmU-21" edge="1">
          <mxGeometry relative="1" as="geometry" />
        </mxCell>
        <mxCell id="dg6ZHdE0oC0c4fAQFHmU-20" value="是否已经在红黑树存储" style="rhombus;whiteSpace=wrap;html=1;fontSize=14;fontFamily=Lucida Console;" parent="1" vertex="1">
          <mxGeometry x="440" y="450" width="90" height="80" as="geometry" />
        </mxCell>
        <mxCell id="dg6ZHdE0oC0c4fAQFHmU-32" style="edgeStyle=orthogonalEdgeStyle;rounded=0;orthogonalLoop=1;jettySize=auto;html=1;fontSize=14;fontFamily=Lucida Console;" parent="1" source="dg6ZHdE0oC0c4fAQFHmU-21" target="dg6ZHdE0oC0c4fAQFHmU-22" edge="1">
          <mxGeometry relative="1" as="geometry" />
        </mxCell>
        <mxCell id="dg6ZHdE0oC0c4fAQFHmU-36" style="edgeStyle=orthogonalEdgeStyle;rounded=0;orthogonalLoop=1;jettySize=auto;html=1;fontSize=14;fontFamily=Lucida Console;" parent="1" source="dg6ZHdE0oC0c4fAQFHmU-21" target="dg6ZHdE0oC0c4fAQFHmU-27" edge="1">
          <mxGeometry relative="1" as="geometry" />
        </mxCell>
        <mxCell id="dg6ZHdE0oC0c4fAQFHmU-21" value="当前位置的next是否为null" style="rhombus;whiteSpace=wrap;html=1;fontSize=14;fontFamily=Lucida Console;" parent="1" vertex="1">
          <mxGeometry x="270" y="450" width="90" height="80" as="geometry" />
        </mxCell>
        <mxCell id="dg6ZHdE0oC0c4fAQFHmU-33" style="edgeStyle=orthogonalEdgeStyle;rounded=0;orthogonalLoop=1;jettySize=auto;html=1;fontSize=14;fontFamily=Lucida Console;" parent="1" source="dg6ZHdE0oC0c4fAQFHmU-22" target="dg6ZHdE0oC0c4fAQFHmU-23" edge="1">
          <mxGeometry relative="1" as="geometry" />
        </mxCell>
        <mxCell id="dg6ZHdE0oC0c4fAQFHmU-22" value="在链表的尾部添加当前元素" style="rounded=1;whiteSpace=wrap;html=1;fontSize=14;fontFamily=Lucida Console;" parent="1" vertex="1">
          <mxGeometry x="70" y="470" width="120" height="40" as="geometry" />
        </mxCell>
        <mxCell id="dg6ZHdE0oC0c4fAQFHmU-34" style="edgeStyle=orthogonalEdgeStyle;rounded=0;orthogonalLoop=1;jettySize=auto;html=1;fontSize=14;fontFamily=Lucida Console;" parent="1" source="dg6ZHdE0oC0c4fAQFHmU-23" target="dg6ZHdE0oC0c4fAQFHmU-25" edge="1">
          <mxGeometry relative="1" as="geometry" />
        </mxCell>
        <mxCell id="dg6ZHdE0oC0c4fAQFHmU-42" style="edgeStyle=orthogonalEdgeStyle;rounded=0;orthogonalLoop=1;jettySize=auto;html=1;entryX=0;entryY=0.5;entryDx=0;entryDy=0;fontSize=14;fontFamily=Lucida Console;" parent="1" source="dg6ZHdE0oC0c4fAQFHmU-23" target="dg6ZHdE0oC0c4fAQFHmU-22" edge="1">
          <mxGeometry relative="1" as="geometry">
            <Array as="points">
              <mxPoint x="50" y="625" />
              <mxPoint x="50" y="490" />
            </Array>
          </mxGeometry>
        </mxCell>
        <mxCell id="dg6ZHdE0oC0c4fAQFHmU-23" value="当前桶的链表是否超过链表的阈值8" style="rhombus;whiteSpace=wrap;html=1;fontSize=14;fontFamily=Lucida Console;" parent="1" vertex="1">
          <mxGeometry x="85" y="585" width="90" height="80" as="geometry" />
        </mxCell>
        <mxCell id="dg6ZHdE0oC0c4fAQFHmU-35" style="edgeStyle=orthogonalEdgeStyle;rounded=0;orthogonalLoop=1;jettySize=auto;html=1;entryX=0;entryY=0.5;entryDx=0;entryDy=0;fontSize=14;fontFamily=Lucida Console;" parent="1" source="dg6ZHdE0oC0c4fAQFHmU-25" target="dg6ZHdE0oC0c4fAQFHmU-26" edge="1">
          <mxGeometry relative="1" as="geometry" />
        </mxCell>
        <mxCell id="dg6ZHdE0oC0c4fAQFHmU-25" value="在红黑树进行存储" style="rounded=1;whiteSpace=wrap;html=1;fontSize=14;fontFamily=Lucida Console;" parent="1" vertex="1">
          <mxGeometry x="70" y="730" width="120" height="40" as="geometry" />
        </mxCell>
        <mxCell id="dg6ZHdE0oC0c4fAQFHmU-26" value="return null" style="rounded=1;whiteSpace=wrap;html=1;fontSize=14;fontFamily=Lucida Console;" parent="1" vertex="1">
          <mxGeometry x="270" y="730" width="120" height="40" as="geometry" />
        </mxCell>
        <mxCell id="dg6ZHdE0oC0c4fAQFHmU-37" style="edgeStyle=orthogonalEdgeStyle;rounded=0;orthogonalLoop=1;jettySize=auto;html=1;fontSize=14;fontFamily=Lucida Console;" parent="1" source="dg6ZHdE0oC0c4fAQFHmU-27" edge="1">
          <mxGeometry relative="1" as="geometry">
            <mxPoint x="410" y="490" as="targetPoint" />
          </mxGeometry>
        </mxCell>
        <mxCell id="dg6ZHdE0oC0c4fAQFHmU-27" value="遍历下一个节点" style="rounded=1;whiteSpace=wrap;html=1;fontSize=14;fontFamily=Lucida Console;" parent="1" vertex="1">
          <mxGeometry x="255" y="605" width="120" height="40" as="geometry" />
        </mxCell>
        <mxCell id="dg6ZHdE0oC0c4fAQFHmU-28" value="return null" style="rounded=1;whiteSpace=wrap;html=1;fontSize=14;fontFamily=Lucida Console;" parent="1" vertex="1">
          <mxGeometry x="800" y="150" width="120" height="40" as="geometry" />
        </mxCell>
        <mxCell id="dg6ZHdE0oC0c4fAQFHmU-38" value="false" style="text;html=1;strokeColor=none;fillColor=none;align=center;verticalAlign=middle;whiteSpace=wrap;rounded=0;fontSize=14;fontFamily=Lucida Console;" parent="1" vertex="1">
          <mxGeometry x="490" y="400" width="60" height="30" as="geometry" />
        </mxCell>
        <mxCell id="dg6ZHdE0oC0c4fAQFHmU-39" value="false" style="text;html=1;strokeColor=none;fillColor=none;align=center;verticalAlign=middle;whiteSpace=wrap;rounded=0;fontSize=14;fontFamily=Lucida Console;" parent="1" vertex="1">
          <mxGeometry x="310" y="540" width="60" height="30" as="geometry" />
        </mxCell>
        <mxCell id="dg6ZHdE0oC0c4fAQFHmU-40" value="true" style="text;html=1;strokeColor=none;fillColor=none;align=center;verticalAlign=middle;whiteSpace=wrap;rounded=0;fontSize=14;fontFamily=Lucida Console;" parent="1" vertex="1">
          <mxGeometry x="372" y="309" width="60" height="30" as="geometry" />
        </mxCell>
        <mxCell id="dg6ZHdE0oC0c4fAQFHmU-41" value="true" style="text;html=1;strokeColor=none;fillColor=none;align=center;verticalAlign=middle;whiteSpace=wrap;rounded=0;fontSize=14;fontFamily=Lucida Console;" parent="1" vertex="1">
          <mxGeometry x="200" y="460" width="60" height="30" as="geometry" />
        </mxCell>
        <mxCell id="dg6ZHdE0oC0c4fAQFHmU-43" value="true" style="text;html=1;strokeColor=none;fillColor=none;align=center;verticalAlign=middle;whiteSpace=wrap;rounded=0;fontSize=14;fontFamily=Lucida Console;" parent="1" vertex="1">
          <mxGeometry x="119" y="680" width="60" height="30" as="geometry" />
        </mxCell>
        <mxCell id="dg6ZHdE0oC0c4fAQFHmU-44" value="false" style="text;html=1;strokeColor=none;fillColor=none;align=center;verticalAlign=middle;whiteSpace=wrap;rounded=0;" parent="1" vertex="1">
          <mxGeometry y="540" width="60" height="30" as="geometry" />
        </mxCell>
        <mxCell id="dg6ZHdE0oC0c4fAQFHmU-45" value="判断已有元素key的hash值和当前位置的key的hash值是否相等" style="text;html=1;strokeColor=none;fillColor=none;align=center;verticalAlign=top;whiteSpace=wrap;rounded=0;fontSize=14;" parent="1" vertex="1">
          <mxGeometry x="540" y="300" width="120" height="80" as="geometry" />
        </mxCell>
      </root>
    </mxGraphModel>
  </diagram>
  <diagram id="WjLIxlNdfkDQYKYCukE1" name="第 3 页">
    <mxGraphModel dx="2074" dy="1116" grid="1" gridSize="10" guides="1" tooltips="1" connect="1" arrows="1" fold="1" page="1" pageScale="1" pageWidth="827" pageHeight="1169" math="0" shadow="0">
      <root>
        <mxCell id="0" />
        <mxCell id="1" parent="0" />
        <mxCell id="lFYa3qovm9Pjl4NJ3dws-1" value="" style="rounded=1;whiteSpace=wrap;html=1;fillColor=#d8d8d8;fontSize=14;" parent="1" vertex="1">
          <mxGeometry x="270" y="207" width="220" height="30" as="geometry" />
        </mxCell>
        <mxCell id="lFYa3qovm9Pjl4NJ3dws-2" value="输入流" style="rounded=1;whiteSpace=wrap;html=1;fontSize=14;" parent="1" vertex="1">
          <mxGeometry x="196" y="240" width="100" height="30" as="geometry" />
        </mxCell>
        <mxCell id="lFYa3qovm9Pjl4NJ3dws-3" value="输出流" style="rounded=1;whiteSpace=wrap;html=1;fontSize=14;" parent="1" vertex="1">
          <mxGeometry x="479" y="240" width="100" height="30" as="geometry" />
        </mxCell>
        <mxCell id="lFYa3qovm9Pjl4NJ3dws-5" value="A" style="rounded=1;whiteSpace=wrap;html=1;fontSize=14;" parent="1" vertex="1">
          <mxGeometry x="300" y="240" width="30" height="30" as="geometry" />
        </mxCell>
        <mxCell id="lFYa3qovm9Pjl4NJ3dws-6" value="B" style="rounded=1;whiteSpace=wrap;html=1;fontSize=14;" parent="1" vertex="1">
          <mxGeometry x="335" y="240" width="30" height="30" as="geometry" />
        </mxCell>
        <mxCell id="lFYa3qovm9Pjl4NJ3dws-7" value="C" style="rounded=1;whiteSpace=wrap;html=1;fontSize=14;" parent="1" vertex="1">
          <mxGeometry x="370" y="240" width="30" height="30" as="geometry" />
        </mxCell>
        <mxCell id="lFYa3qovm9Pjl4NJ3dws-8" value="E" style="rounded=1;whiteSpace=wrap;html=1;fontSize=14;" parent="1" vertex="1">
          <mxGeometry x="445" y="240" width="30" height="30" as="geometry" />
        </mxCell>
        <mxCell id="lFYa3qovm9Pjl4NJ3dws-9" value="D" style="rounded=1;whiteSpace=wrap;html=1;fontSize=14;" parent="1" vertex="1">
          <mxGeometry x="410" y="240" width="30" height="30" as="geometry" />
        </mxCell>
        <mxCell id="lFYa3qovm9Pjl4NJ3dws-14" value="" style="shape=flexArrow;endArrow=classic;html=1;rounded=0;endWidth=4.96;endSize=3.3880000000000003;width=6;fontSize=14;" parent="1" edge="1">
          <mxGeometry width="50" height="50" relative="1" as="geometry">
            <mxPoint x="571" y="255.63" as="sourcePoint" />
            <mxPoint x="590" y="256" as="targetPoint" />
          </mxGeometry>
        </mxCell>
        <mxCell id="lFYa3qovm9Pjl4NJ3dws-16" value="" style="rounded=1;whiteSpace=wrap;html=1;fillColor=#d8d8d8;fontSize=14;" parent="1" vertex="1">
          <mxGeometry x="270" y="273" width="220" height="30" as="geometry" />
        </mxCell>
        <mxCell id="lFYa3qovm9Pjl4NJ3dws-17" value="" style="shape=flexArrow;endArrow=classic;html=1;rounded=0;endWidth=4.96;endSize=3.3880000000000003;width=6;fontSize=14;" parent="1" edge="1">
          <mxGeometry width="50" height="50" relative="1" as="geometry">
            <mxPoint x="290" y="255.63" as="sourcePoint" />
            <mxPoint x="309" y="256" as="targetPoint" />
          </mxGeometry>
        </mxCell>
        <mxCell id="lFYa3qovm9Pjl4NJ3dws-18" value="内存&lt;br style=&quot;font-size: 14px;&quot;&gt;（java程序）" style="rounded=1;whiteSpace=wrap;html=1;fontSize=14;" parent="1" vertex="1">
          <mxGeometry x="341" y="489" width="145" height="100" as="geometry" />
        </mxCell>
        <mxCell id="lFYa3qovm9Pjl4NJ3dws-19" value="" style="shape=flexArrow;endArrow=classic;html=1;rounded=0;fontSize=14;" parent="1" edge="1">
          <mxGeometry width="50" height="50" relative="1" as="geometry">
            <mxPoint x="486" y="540" as="sourcePoint" />
            <mxPoint x="582" y="540" as="targetPoint" />
          </mxGeometry>
        </mxCell>
        <mxCell id="lFYa3qovm9Pjl4NJ3dws-20" value="" style="rounded=1;whiteSpace=wrap;html=1;fontSize=14;" parent="1" vertex="1">
          <mxGeometry x="581" y="440" width="120" height="190" as="geometry" />
        </mxCell>
        <mxCell id="lFYa3qovm9Pjl4NJ3dws-21" value="显示器" style="rounded=1;whiteSpace=wrap;html=1;fontSize=14;" parent="1" vertex="1">
          <mxGeometry x="586" y="450" width="110" height="50" as="geometry" />
        </mxCell>
        <mxCell id="lFYa3qovm9Pjl4NJ3dws-22" value="文件" style="rounded=1;whiteSpace=wrap;html=1;fontSize=14;" parent="1" vertex="1">
          <mxGeometry x="586" y="510" width="110" height="50" as="geometry" />
        </mxCell>
        <mxCell id="lFYa3qovm9Pjl4NJ3dws-23" value="网络" style="rounded=1;whiteSpace=wrap;html=1;fontSize=14;" parent="1" vertex="1">
          <mxGeometry x="586" y="571.5" width="110" height="50" as="geometry" />
        </mxCell>
        <mxCell id="lFYa3qovm9Pjl4NJ3dws-24" value="" style="rounded=1;whiteSpace=wrap;html=1;fontSize=14;" parent="1" vertex="1">
          <mxGeometry x="140" y="441" width="120" height="190" as="geometry" />
        </mxCell>
        <mxCell id="lFYa3qovm9Pjl4NJ3dws-25" value="键盘" style="rounded=1;whiteSpace=wrap;html=1;fontSize=14;" parent="1" vertex="1">
          <mxGeometry x="145" y="451" width="110" height="50" as="geometry" />
        </mxCell>
        <mxCell id="lFYa3qovm9Pjl4NJ3dws-26" value="文件" style="rounded=1;whiteSpace=wrap;html=1;fontSize=14;" parent="1" vertex="1">
          <mxGeometry x="145" y="511" width="110" height="50" as="geometry" />
        </mxCell>
        <mxCell id="lFYa3qovm9Pjl4NJ3dws-27" value="网络" style="rounded=1;whiteSpace=wrap;html=1;fontSize=14;" parent="1" vertex="1">
          <mxGeometry x="145" y="572.5" width="110" height="50" as="geometry" />
        </mxCell>
        <mxCell id="lFYa3qovm9Pjl4NJ3dws-28" value="" style="shape=flexArrow;endArrow=classic;html=1;rounded=0;fontSize=14;" parent="1" edge="1">
          <mxGeometry width="50" height="50" relative="1" as="geometry">
            <mxPoint x="261" y="540.5" as="sourcePoint" />
            <mxPoint x="341" y="540.5" as="targetPoint" />
          </mxGeometry>
        </mxCell>
        <mxCell id="lFYa3qovm9Pjl4NJ3dws-29" value="源数据源" style="text;html=1;strokeColor=none;fillColor=none;align=center;verticalAlign=middle;whiteSpace=wrap;rounded=0;fontSize=14;" parent="1" vertex="1">
          <mxGeometry x="266" y="510" width="60" height="30" as="geometry" />
        </mxCell>
        <mxCell id="lFYa3qovm9Pjl4NJ3dws-30" value="目标数据源" style="text;html=1;strokeColor=none;fillColor=none;align=center;verticalAlign=middle;whiteSpace=wrap;rounded=0;fontSize=14;" parent="1" vertex="1">
          <mxGeometry x="490" y="510" width="73" height="30" as="geometry" />
        </mxCell>
      </root>
    </mxGraphModel>
  </diagram>
  <diagram id="zvtO0hSRWEhCTRimJWYI" name="第 4 页">
    <mxGraphModel dx="2074" dy="1116" grid="1" gridSize="10" guides="1" tooltips="1" connect="1" arrows="1" fold="1" page="1" pageScale="1" pageWidth="827" pageHeight="1169" math="0" shadow="0">
      <root>
        <mxCell id="0" />
        <mxCell id="1" parent="0" />
        <mxCell id="obsdM97gAh3jI52M8-Ru-1" value="Person.java" style="rounded=1;whiteSpace=wrap;html=1;fontSize=15;fontFamily=Lucida Console;" parent="1" vertex="1">
          <mxGeometry x="90" y="360" width="110" height="50" as="geometry" />
        </mxCell>
        <mxCell id="obsdM97gAh3jI52M8-Ru-2" value="编译器" style="rounded=1;whiteSpace=wrap;html=1;fontSize=15;fontFamily=Lucida Console;" parent="1" vertex="1">
          <mxGeometry x="290" y="360" width="110" height="50" as="geometry" />
        </mxCell>
        <mxCell id="obsdM97gAh3jI52M8-Ru-3" value="Person.class" style="rounded=1;whiteSpace=wrap;html=1;fontSize=15;fontFamily=Lucida Console;" parent="1" vertex="1">
          <mxGeometry x="470" y="360" width="110" height="50" as="geometry" />
        </mxCell>
        <mxCell id="obsdM97gAh3jI52M8-Ru-4" value="Java虚拟机" style="rounded=1;whiteSpace=wrap;html=1;fontSize=15;fontFamily=Lucida Console;" parent="1" vertex="1">
          <mxGeometry x="660" y="360" width="110" height="50" as="geometry" />
        </mxCell>
        <mxCell id="obsdM97gAh3jI52M8-Ru-5" value="运行程序" style="rounded=1;whiteSpace=wrap;html=1;fontSize=15;fontFamily=Lucida Console;" parent="1" vertex="1">
          <mxGeometry x="830" y="360" width="110" height="50" as="geometry" />
        </mxCell>
        <mxCell id="obsdM97gAh3jI52M8-Ru-6" value="" style="shape=flexArrow;endArrow=classic;html=1;rounded=0;fillColor=#647687;strokeColor=#314354;entryX=0;entryY=0.5;entryDx=0;entryDy=0;" parent="1" edge="1">
          <mxGeometry width="50" height="50" relative="1" as="geometry">
            <mxPoint x="200" y="384.5" as="sourcePoint" />
            <mxPoint x="290" y="385" as="targetPoint" />
          </mxGeometry>
        </mxCell>
        <mxCell id="obsdM97gAh3jI52M8-Ru-7" value="" style="shape=flexArrow;endArrow=classic;html=1;rounded=0;fillColor=#647687;strokeColor=#314354;" parent="1" edge="1">
          <mxGeometry width="50" height="50" relative="1" as="geometry">
            <mxPoint x="400" y="384.5" as="sourcePoint" />
            <mxPoint x="470" y="385" as="targetPoint" />
          </mxGeometry>
        </mxCell>
        <mxCell id="obsdM97gAh3jI52M8-Ru-8" value="" style="shape=flexArrow;endArrow=classic;html=1;rounded=0;fillColor=#647687;strokeColor=#314354;entryX=0;entryY=0.5;entryDx=0;entryDy=0;" parent="1" target="obsdM97gAh3jI52M8-Ru-4" edge="1">
          <mxGeometry width="50" height="50" relative="1" as="geometry">
            <mxPoint x="580" y="384.5" as="sourcePoint" />
            <mxPoint x="650" y="385" as="targetPoint" />
          </mxGeometry>
        </mxCell>
        <mxCell id="obsdM97gAh3jI52M8-Ru-10" value="" style="shape=flexArrow;endArrow=classic;html=1;rounded=0;fillColor=#647687;strokeColor=#314354;entryX=0;entryY=0.5;entryDx=0;entryDy=0;" parent="1" target="obsdM97gAh3jI52M8-Ru-5" edge="1">
          <mxGeometry width="50" height="50" relative="1" as="geometry">
            <mxPoint x="770" y="384.5" as="sourcePoint" />
            <mxPoint x="840" y="385" as="targetPoint" />
          </mxGeometry>
        </mxCell>
      </root>
    </mxGraphModel>
  </diagram>
  <diagram id="RnV0IPZgvGWi2fB6PVMw" name="第 5 页">
    <mxGraphModel dx="1985" dy="606" grid="1" gridSize="10" guides="1" tooltips="1" connect="1" arrows="1" fold="1" page="0" pageScale="1" pageWidth="827" pageHeight="1169" math="0" shadow="0">
      <root>
        <mxCell id="0" />
        <mxCell id="1" parent="0" />
        <mxCell id="fCIBbcfLkBg8w0rigGrU-1" value="" style="rounded=1;whiteSpace=wrap;html=1;fontSize=16;fontFamily=Comic Sans MS;" parent="1" vertex="1">
          <mxGeometry x="-170" y="250" width="280" height="60" as="geometry" />
        </mxCell>
        <mxCell id="fCIBbcfLkBg8w0rigGrU-2" value="1" style="ellipse;whiteSpace=wrap;html=1;aspect=fixed;fontSize=16;fontFamily=Comic Sans MS;shadow=1;fillColor=#dae8fc;strokeColor=#6c8ebf;" parent="1" vertex="1">
          <mxGeometry x="-150" y="255" width="50" height="50" as="geometry" />
        </mxCell>
        <mxCell id="fCIBbcfLkBg8w0rigGrU-3" value="2" style="ellipse;whiteSpace=wrap;html=1;aspect=fixed;fontSize=16;fontFamily=Comic Sans MS;shadow=1;fillColor=#dae8fc;strokeColor=#6c8ebf;" parent="1" vertex="1">
          <mxGeometry x="-60" y="255" width="50" height="50" as="geometry" />
        </mxCell>
        <mxCell id="fCIBbcfLkBg8w0rigGrU-4" value="3" style="ellipse;whiteSpace=wrap;html=1;aspect=fixed;fontSize=16;fontFamily=Comic Sans MS;shadow=1;fillColor=#dae8fc;strokeColor=#6c8ebf;" parent="1" vertex="1">
          <mxGeometry x="40" y="255" width="50" height="50" as="geometry" />
        </mxCell>
        <mxCell id="fCIBbcfLkBg8w0rigGrU-5" value="" style="rounded=1;whiteSpace=wrap;html=1;fontSize=16;fontFamily=Comic Sans MS;" parent="1" vertex="1">
          <mxGeometry x="-140" y="480" width="200" height="60" as="geometry" />
        </mxCell>
        <mxCell id="fCIBbcfLkBg8w0rigGrU-6" value="1" style="ellipse;whiteSpace=wrap;html=1;aspect=fixed;fontSize=16;fontFamily=Comic Sans MS;shadow=1;fillColor=#f8cecc;strokeColor=#b85450;fontColor=#FFFFFF;" parent="1" vertex="1">
          <mxGeometry x="-120" y="485" width="50" height="50" as="geometry" />
        </mxCell>
        <mxCell id="fCIBbcfLkBg8w0rigGrU-7" value="2" style="ellipse;whiteSpace=wrap;html=1;aspect=fixed;fontSize=16;fontFamily=Comic Sans MS;shadow=1;fillColor=#f8cecc;strokeColor=#b85450;fontColor=#FFFFFF;" parent="1" vertex="1">
          <mxGeometry x="-30" y="485" width="50" height="50" as="geometry" />
        </mxCell>
        <mxCell id="fCIBbcfLkBg8w0rigGrU-9" value="集合A" style="text;html=1;strokeColor=none;fillColor=none;align=center;verticalAlign=middle;whiteSpace=wrap;rounded=0;fontSize=16;fontFamily=Lucida Console;" parent="1" vertex="1">
          <mxGeometry x="-80" y="210" width="60" height="30" as="geometry" />
        </mxCell>
        <mxCell id="fCIBbcfLkBg8w0rigGrU-10" value="集合B" style="text;html=1;strokeColor=none;fillColor=none;align=center;verticalAlign=middle;whiteSpace=wrap;rounded=0;fontSize=16;fontFamily=Lucida Console;" parent="1" vertex="1">
          <mxGeometry x="-80" y="440" width="60" height="30" as="geometry" />
        </mxCell>
        <mxCell id="fCIBbcfLkBg8w0rigGrU-11" value="" style="rounded=1;whiteSpace=wrap;html=1;fontSize=16;fontFamily=Comic Sans MS;" parent="1" vertex="1">
          <mxGeometry x="230" y="180" width="210" height="450" as="geometry" />
        </mxCell>
        <mxCell id="fCIBbcfLkBg8w0rigGrU-12" value="1" style="ellipse;whiteSpace=wrap;html=1;aspect=fixed;fontSize=16;fontFamily=Comic Sans MS;shadow=1;fillColor=#dae8fc;strokeColor=#6c8ebf;" parent="1" vertex="1">
          <mxGeometry x="260" y="200" width="50" height="50" as="geometry" />
        </mxCell>
        <mxCell id="fCIBbcfLkBg8w0rigGrU-14" value="1" style="ellipse;whiteSpace=wrap;html=1;aspect=fixed;fontSize=16;fontFamily=Comic Sans MS;shadow=1;fillColor=#f8cecc;strokeColor=#b85450;fontColor=#FFFFFF;" parent="1" vertex="1">
          <mxGeometry x="350" y="200" width="50" height="50" as="geometry" />
        </mxCell>
        <mxCell id="fCIBbcfLkBg8w0rigGrU-15" value="2" style="ellipse;whiteSpace=wrap;html=1;aspect=fixed;fontSize=16;fontFamily=Comic Sans MS;shadow=1;fillColor=#dae8fc;strokeColor=#6c8ebf;" parent="1" vertex="1">
          <mxGeometry x="260" y="270" width="50" height="50" as="geometry" />
        </mxCell>
        <mxCell id="fCIBbcfLkBg8w0rigGrU-17" value="3" style="ellipse;whiteSpace=wrap;html=1;aspect=fixed;fontSize=16;fontFamily=Comic Sans MS;shadow=1;fillColor=#dae8fc;strokeColor=#6c8ebf;" parent="1" vertex="1">
          <mxGeometry x="260" y="340" width="50" height="50" as="geometry" />
        </mxCell>
        <mxCell id="fCIBbcfLkBg8w0rigGrU-18" value="1" style="ellipse;whiteSpace=wrap;html=1;aspect=fixed;fontSize=16;fontFamily=Comic Sans MS;shadow=1;fillColor=#dae8fc;strokeColor=#6c8ebf;" parent="1" vertex="1">
          <mxGeometry x="260" y="410" width="50" height="50" as="geometry" />
        </mxCell>
        <mxCell id="fCIBbcfLkBg8w0rigGrU-19" value="2" style="ellipse;whiteSpace=wrap;html=1;aspect=fixed;fontSize=16;fontFamily=Comic Sans MS;shadow=1;fillColor=#dae8fc;strokeColor=#6c8ebf;" parent="1" vertex="1">
          <mxGeometry x="260" y="480" width="50" height="50" as="geometry" />
        </mxCell>
        <mxCell id="fCIBbcfLkBg8w0rigGrU-20" value="3" style="ellipse;whiteSpace=wrap;html=1;aspect=fixed;fontSize=16;fontFamily=Comic Sans MS;shadow=1;fillColor=#dae8fc;strokeColor=#6c8ebf;" parent="1" vertex="1">
          <mxGeometry x="260" y="550" width="50" height="50" as="geometry" />
        </mxCell>
        <mxCell id="fCIBbcfLkBg8w0rigGrU-21" value="1" style="ellipse;whiteSpace=wrap;html=1;aspect=fixed;fontSize=16;fontFamily=Comic Sans MS;shadow=1;fillColor=#f8cecc;strokeColor=#b85450;fontColor=#FFFFFF;" parent="1" vertex="1">
          <mxGeometry x="350" y="270" width="50" height="50" as="geometry" />
        </mxCell>
        <mxCell id="fCIBbcfLkBg8w0rigGrU-22" value="1" style="ellipse;whiteSpace=wrap;html=1;aspect=fixed;fontSize=16;fontFamily=Comic Sans MS;shadow=1;fillColor=#f8cecc;strokeColor=#b85450;fontColor=#FFFFFF;" parent="1" vertex="1">
          <mxGeometry x="350" y="340" width="50" height="50" as="geometry" />
        </mxCell>
        <mxCell id="fCIBbcfLkBg8w0rigGrU-23" value="2" style="ellipse;whiteSpace=wrap;html=1;aspect=fixed;fontSize=16;fontFamily=Comic Sans MS;shadow=1;fillColor=#f8cecc;strokeColor=#b85450;fontColor=#FFFFFF;" parent="1" vertex="1">
          <mxGeometry x="350" y="410" width="50" height="50" as="geometry" />
        </mxCell>
        <mxCell id="fCIBbcfLkBg8w0rigGrU-24" value="2" style="ellipse;whiteSpace=wrap;html=1;aspect=fixed;fontSize=16;fontFamily=Comic Sans MS;shadow=1;fillColor=#f8cecc;strokeColor=#b85450;fontColor=#FFFFFF;" parent="1" vertex="1">
          <mxGeometry x="350" y="480" width="50" height="50" as="geometry" />
        </mxCell>
        <mxCell id="fCIBbcfLkBg8w0rigGrU-25" value="2" style="ellipse;whiteSpace=wrap;html=1;aspect=fixed;fontSize=16;fontFamily=Comic Sans MS;shadow=1;fillColor=#f8cecc;strokeColor=#b85450;fontColor=#FFFFFF;" parent="1" vertex="1">
          <mxGeometry x="350" y="550" width="50" height="50" as="geometry" />
        </mxCell>
        <mxCell id="fCIBbcfLkBg8w0rigGrU-26" value="" style="endArrow=none;html=1;rounded=0;entryX=0.003;entryY=0.471;entryDx=0;entryDy=0;entryPerimeter=0;strokeWidth=3;" parent="1" target="fCIBbcfLkBg8w0rigGrU-11" edge="1">
          <mxGeometry width="50" height="50" relative="1" as="geometry">
            <mxPoint x="110" y="280" as="sourcePoint" />
            <mxPoint x="160" y="230" as="targetPoint" />
          </mxGeometry>
        </mxCell>
        <mxCell id="fCIBbcfLkBg8w0rigGrU-28" value="" style="endArrow=none;html=1;rounded=0;entryX=0;entryY=0.5;entryDx=0;entryDy=0;strokeWidth=3;" parent="1" target="fCIBbcfLkBg8w0rigGrU-11" edge="1">
          <mxGeometry width="50" height="50" relative="1" as="geometry">
            <mxPoint x="60" y="510" as="sourcePoint" />
            <mxPoint x="110" y="460" as="targetPoint" />
          </mxGeometry>
        </mxCell>
        <mxCell id="fCIBbcfLkBg8w0rigGrU-29" value="集合A和集合B的乘积" style="text;html=1;strokeColor=none;fillColor=none;align=center;verticalAlign=middle;whiteSpace=wrap;rounded=0;fontSize=16;fontFamily=Lucida Console;" parent="1" vertex="1">
          <mxGeometry x="215" y="120" width="240" height="30" as="geometry" />
        </mxCell>
        <mxCell id="fCIBbcfLkBg8w0rigGrU-30" value="" style="endArrow=classic;html=1;rounded=0;" parent="1" edge="1">
          <mxGeometry width="50" height="50" relative="1" as="geometry">
            <mxPoint x="-320" y="1620" as="sourcePoint" />
            <mxPoint x="-320" y="1240" as="targetPoint" />
          </mxGeometry>
        </mxCell>
        <mxCell id="fCIBbcfLkBg8w0rigGrU-31" value="" style="endArrow=classic;html=1;rounded=0;" parent="1" edge="1">
          <mxGeometry width="50" height="50" relative="1" as="geometry">
            <mxPoint x="-420" y="1551" as="sourcePoint" />
            <mxPoint x="400" y="1551" as="targetPoint" />
          </mxGeometry>
        </mxCell>
        <mxCell id="fCIBbcfLkBg8w0rigGrU-32" value="班级表" style="rounded=0;whiteSpace=wrap;html=1;fontSize=14;" parent="1" vertex="1">
          <mxGeometry x="-250" y="1260" width="90" height="20" as="geometry" />
        </mxCell>
        <mxCell id="fCIBbcfLkBg8w0rigGrU-33" value="专业表" style="rounded=0;whiteSpace=wrap;html=1;fontSize=14;" parent="1" vertex="1">
          <mxGeometry x="-155" y="1260" width="60" height="20" as="geometry" />
        </mxCell>
        <mxCell id="fCIBbcfLkBg8w0rigGrU-34" value="班&lt;br style=&quot;font-size: 14px;&quot;&gt;级&lt;br style=&quot;font-size: 14px;&quot;&gt;编&lt;br style=&quot;font-size: 14px;&quot;&gt;号" style="rounded=0;fontSize=14;whiteSpace=wrap;html=1;labelBackgroundColor=none;labelBorderColor=none;" parent="1" vertex="1">
          <mxGeometry x="-250" y="1280" width="30" height="70" as="geometry" />
        </mxCell>
        <mxCell id="fCIBbcfLkBg8w0rigGrU-35" value="班&lt;br style=&quot;font-size: 14px;&quot;&gt;级&lt;br style=&quot;font-size: 14px;&quot;&gt;名&lt;br style=&quot;font-size: 14px;&quot;&gt;称" style="rounded=0;whiteSpace=wrap;html=1;fontSize=14;" parent="1" vertex="1">
          <mxGeometry x="-220" y="1280" width="30" height="70" as="geometry" />
        </mxCell>
        <mxCell id="fCIBbcfLkBg8w0rigGrU-36" value="专&lt;br style=&quot;font-size: 14px;&quot;&gt;业&lt;br style=&quot;font-size: 14px;&quot;&gt;编&lt;br style=&quot;font-size: 14px;&quot;&gt;号" style="rounded=0;whiteSpace=wrap;html=1;fontSize=14;" parent="1" vertex="1">
          <mxGeometry x="-190" y="1280" width="30" height="70" as="geometry" />
        </mxCell>
        <mxCell id="fCIBbcfLkBg8w0rigGrU-37" value="专&lt;br style=&quot;font-size: 14px;&quot;&gt;业&lt;br style=&quot;font-size: 14px;&quot;&gt;编&lt;br style=&quot;font-size: 14px;&quot;&gt;号" style="rounded=0;whiteSpace=wrap;html=1;fontSize=14;" parent="1" vertex="1">
          <mxGeometry x="-155" y="1280" width="30" height="70" as="geometry" />
        </mxCell>
        <mxCell id="fCIBbcfLkBg8w0rigGrU-38" value="专&lt;br style=&quot;font-size: 14px;&quot;&gt;业&lt;br style=&quot;font-size: 14px;&quot;&gt;名&lt;br style=&quot;font-size: 14px;&quot;&gt;称" style="rounded=0;whiteSpace=wrap;html=1;fontSize=14;" parent="1" vertex="1">
          <mxGeometry x="-125" y="1280" width="30" height="70" as="geometry" />
        </mxCell>
        <mxCell id="fCIBbcfLkBg8w0rigGrU-39" value="班级表" style="rounded=0;whiteSpace=wrap;html=1;fontSize=14;" parent="1" vertex="1">
          <mxGeometry x="-43" y="1260" width="90" height="20" as="geometry" />
        </mxCell>
        <mxCell id="fCIBbcfLkBg8w0rigGrU-40" value="专业表" style="rounded=0;whiteSpace=wrap;html=1;fontSize=14;" parent="1" vertex="1">
          <mxGeometry x="52" y="1260" width="60" height="20" as="geometry" />
        </mxCell>
        <mxCell id="fCIBbcfLkBg8w0rigGrU-41" value="班&lt;br style=&quot;font-size: 14px;&quot;&gt;级&lt;br style=&quot;font-size: 14px;&quot;&gt;编&lt;br style=&quot;font-size: 14px;&quot;&gt;号" style="rounded=0;fontSize=14;whiteSpace=wrap;html=1;labelBackgroundColor=none;labelBorderColor=none;" parent="1" vertex="1">
          <mxGeometry x="-43" y="1280" width="30" height="70" as="geometry" />
        </mxCell>
        <mxCell id="fCIBbcfLkBg8w0rigGrU-42" value="班&lt;br style=&quot;font-size: 14px;&quot;&gt;级&lt;br style=&quot;font-size: 14px;&quot;&gt;名&lt;br style=&quot;font-size: 14px;&quot;&gt;称" style="rounded=0;whiteSpace=wrap;html=1;fontSize=14;" parent="1" vertex="1">
          <mxGeometry x="-13" y="1280" width="30" height="70" as="geometry" />
        </mxCell>
        <mxCell id="fCIBbcfLkBg8w0rigGrU-43" value="专&lt;br style=&quot;font-size: 14px;&quot;&gt;业&lt;br style=&quot;font-size: 14px;&quot;&gt;编&lt;br style=&quot;font-size: 14px;&quot;&gt;号" style="rounded=0;whiteSpace=wrap;html=1;fontSize=14;" parent="1" vertex="1">
          <mxGeometry x="17" y="1280" width="30" height="70" as="geometry" />
        </mxCell>
        <mxCell id="fCIBbcfLkBg8w0rigGrU-44" value="专&lt;br style=&quot;font-size: 14px;&quot;&gt;业&lt;br style=&quot;font-size: 14px;&quot;&gt;编&lt;br style=&quot;font-size: 14px;&quot;&gt;号" style="rounded=0;whiteSpace=wrap;html=1;fontSize=14;" parent="1" vertex="1">
          <mxGeometry x="52" y="1280" width="30" height="70" as="geometry" />
        </mxCell>
        <mxCell id="fCIBbcfLkBg8w0rigGrU-45" value="专&lt;br style=&quot;font-size: 14px;&quot;&gt;业&lt;br style=&quot;font-size: 14px;&quot;&gt;名&lt;br style=&quot;font-size: 14px;&quot;&gt;称" style="rounded=0;whiteSpace=wrap;html=1;fontSize=14;" parent="1" vertex="1">
          <mxGeometry x="82" y="1280" width="30" height="70" as="geometry" />
        </mxCell>
        <mxCell id="fCIBbcfLkBg8w0rigGrU-46" value="班级表" style="rounded=0;whiteSpace=wrap;html=1;fontSize=14;" parent="1" vertex="1">
          <mxGeometry x="157" y="1260" width="90" height="20" as="geometry" />
        </mxCell>
        <mxCell id="fCIBbcfLkBg8w0rigGrU-47" value="专业表" style="rounded=0;whiteSpace=wrap;html=1;fontSize=14;" parent="1" vertex="1">
          <mxGeometry x="252" y="1260" width="60" height="20" as="geometry" />
        </mxCell>
        <mxCell id="fCIBbcfLkBg8w0rigGrU-48" value="班&lt;br style=&quot;font-size: 14px;&quot;&gt;级&lt;br style=&quot;font-size: 14px;&quot;&gt;编&lt;br style=&quot;font-size: 14px;&quot;&gt;号" style="rounded=0;fontSize=14;whiteSpace=wrap;html=1;labelBackgroundColor=none;labelBorderColor=none;" parent="1" vertex="1">
          <mxGeometry x="157" y="1280" width="30" height="70" as="geometry" />
        </mxCell>
        <mxCell id="fCIBbcfLkBg8w0rigGrU-49" value="班&lt;br style=&quot;font-size: 14px;&quot;&gt;级&lt;br style=&quot;font-size: 14px;&quot;&gt;名&lt;br style=&quot;font-size: 14px;&quot;&gt;称" style="rounded=0;whiteSpace=wrap;html=1;fontSize=14;" parent="1" vertex="1">
          <mxGeometry x="187" y="1280" width="30" height="70" as="geometry" />
        </mxCell>
        <mxCell id="fCIBbcfLkBg8w0rigGrU-50" value="专&lt;br style=&quot;font-size: 14px;&quot;&gt;业&lt;br style=&quot;font-size: 14px;&quot;&gt;编&lt;br style=&quot;font-size: 14px;&quot;&gt;号" style="rounded=0;whiteSpace=wrap;html=1;fontSize=14;" parent="1" vertex="1">
          <mxGeometry x="217" y="1280" width="30" height="70" as="geometry" />
        </mxCell>
        <mxCell id="fCIBbcfLkBg8w0rigGrU-51" value="专&lt;br style=&quot;font-size: 14px;&quot;&gt;业&lt;br style=&quot;font-size: 14px;&quot;&gt;编&lt;br style=&quot;font-size: 14px;&quot;&gt;号" style="rounded=0;whiteSpace=wrap;html=1;fontSize=14;" parent="1" vertex="1">
          <mxGeometry x="252" y="1280" width="30" height="70" as="geometry" />
        </mxCell>
        <mxCell id="fCIBbcfLkBg8w0rigGrU-52" value="专&lt;br style=&quot;font-size: 14px;&quot;&gt;业&lt;br style=&quot;font-size: 14px;&quot;&gt;名&lt;br style=&quot;font-size: 14px;&quot;&gt;称" style="rounded=0;whiteSpace=wrap;html=1;fontSize=14;" parent="1" vertex="1">
          <mxGeometry x="282" y="1280" width="30" height="70" as="geometry" />
        </mxCell>
        <mxCell id="fCIBbcfLkBg8w0rigGrU-54" value="2" style="rounded=0;fontSize=14;whiteSpace=wrap;html=1;labelBackgroundColor=none;labelBorderColor=none;" parent="1" vertex="1">
          <mxGeometry x="-400" y="1370" width="30" height="35" as="geometry" />
        </mxCell>
        <mxCell id="fCIBbcfLkBg8w0rigGrU-56" value="金&lt;br&gt;融" style="rounded=0;fontSize=14;whiteSpace=wrap;html=1;labelBackgroundColor=none;labelBorderColor=none;" parent="1" vertex="1">
          <mxGeometry x="-370" y="1370" width="30" height="35" as="geometry" />
        </mxCell>
        <mxCell id="fCIBbcfLkBg8w0rigGrU-57" value="1" style="rounded=0;fontSize=14;whiteSpace=wrap;html=1;labelBackgroundColor=none;labelBorderColor=none;" parent="1" vertex="1">
          <mxGeometry x="-250" y="1370" width="30" height="35" as="geometry" />
        </mxCell>
        <mxCell id="fCIBbcfLkBg8w0rigGrU-58" value="开&lt;br&gt;发" style="rounded=0;fontSize=14;whiteSpace=wrap;html=1;labelBackgroundColor=none;labelBorderColor=none;" parent="1" vertex="1">
          <mxGeometry x="-220" y="1370" width="30" height="35" as="geometry" />
        </mxCell>
        <mxCell id="fCIBbcfLkBg8w0rigGrU-59" value="1" style="rounded=0;fontSize=14;whiteSpace=wrap;html=1;labelBackgroundColor=none;labelBorderColor=none;" parent="1" vertex="1">
          <mxGeometry x="-190" y="1370" width="30" height="35" as="geometry" />
        </mxCell>
        <mxCell id="fCIBbcfLkBg8w0rigGrU-60" value="2" style="rounded=0;fontSize=14;whiteSpace=wrap;html=1;labelBackgroundColor=none;labelBorderColor=none;" parent="1" vertex="1">
          <mxGeometry x="-153" y="1370" width="30" height="35" as="geometry" />
        </mxCell>
        <mxCell id="fCIBbcfLkBg8w0rigGrU-61" value="金&lt;br&gt;融" style="rounded=0;fontSize=14;whiteSpace=wrap;html=1;labelBackgroundColor=none;labelBorderColor=none;" parent="1" vertex="1">
          <mxGeometry x="-123" y="1370" width="30" height="35" as="geometry" />
        </mxCell>
        <mxCell id="fCIBbcfLkBg8w0rigGrU-62" value="1" style="rounded=0;fontSize=14;whiteSpace=wrap;html=1;labelBackgroundColor=none;labelBorderColor=none;" parent="1" vertex="1">
          <mxGeometry x="-400" y="1470" width="30" height="35" as="geometry" />
        </mxCell>
        <mxCell id="fCIBbcfLkBg8w0rigGrU-63" value="软&lt;br&gt;件" style="rounded=0;fontSize=14;whiteSpace=wrap;html=1;labelBackgroundColor=none;labelBorderColor=none;" parent="1" vertex="1">
          <mxGeometry x="-370" y="1470" width="30" height="35" as="geometry" />
        </mxCell>
        <mxCell id="fCIBbcfLkBg8w0rigGrU-64" value="1" style="rounded=0;fontSize=14;whiteSpace=wrap;html=1;labelBackgroundColor=none;labelBorderColor=none;" parent="1" vertex="1">
          <mxGeometry x="-250" y="1470" width="30" height="35" as="geometry" />
        </mxCell>
        <mxCell id="fCIBbcfLkBg8w0rigGrU-65" value="开&lt;br&gt;发" style="rounded=0;fontSize=14;whiteSpace=wrap;html=1;labelBackgroundColor=none;labelBorderColor=none;" parent="1" vertex="1">
          <mxGeometry x="-220" y="1470" width="30" height="35" as="geometry" />
        </mxCell>
        <mxCell id="fCIBbcfLkBg8w0rigGrU-66" value="1" style="rounded=0;fontSize=14;whiteSpace=wrap;html=1;labelBackgroundColor=none;labelBorderColor=none;" parent="1" vertex="1">
          <mxGeometry x="-190" y="1470" width="30" height="35" as="geometry" />
        </mxCell>
        <mxCell id="fCIBbcfLkBg8w0rigGrU-67" value="1" style="rounded=0;fontSize=14;whiteSpace=wrap;html=1;labelBackgroundColor=none;labelBorderColor=none;" parent="1" vertex="1">
          <mxGeometry x="-153" y="1470" width="30" height="35" as="geometry" />
        </mxCell>
        <mxCell id="fCIBbcfLkBg8w0rigGrU-68" value="软&lt;br&gt;件" style="rounded=0;fontSize=14;whiteSpace=wrap;html=1;labelBackgroundColor=none;labelBorderColor=none;" parent="1" vertex="1">
          <mxGeometry x="-123" y="1470" width="30" height="35" as="geometry" />
        </mxCell>
        <mxCell id="fCIBbcfLkBg8w0rigGrU-69" value="1" style="rounded=0;fontSize=14;whiteSpace=wrap;html=1;labelBackgroundColor=none;labelBorderColor=none;" parent="1" vertex="1">
          <mxGeometry x="-250" y="1570" width="30" height="35" as="geometry" />
        </mxCell>
        <mxCell id="fCIBbcfLkBg8w0rigGrU-70" value="开&lt;br&gt;发" style="rounded=0;fontSize=14;whiteSpace=wrap;html=1;labelBackgroundColor=none;labelBorderColor=none;" parent="1" vertex="1">
          <mxGeometry x="-220" y="1570" width="30" height="35" as="geometry" />
        </mxCell>
        <mxCell id="fCIBbcfLkBg8w0rigGrU-71" value="1" style="rounded=0;fontSize=14;whiteSpace=wrap;html=1;labelBackgroundColor=none;labelBorderColor=none;" parent="1" vertex="1">
          <mxGeometry x="-190" y="1570" width="30" height="35" as="geometry" />
        </mxCell>
        <mxCell id="fCIBbcfLkBg8w0rigGrU-72" value="2" style="rounded=0;fontSize=14;whiteSpace=wrap;html=1;labelBackgroundColor=none;labelBorderColor=none;" parent="1" vertex="1">
          <mxGeometry x="-43" y="1370" width="30" height="35" as="geometry" />
        </mxCell>
        <mxCell id="fCIBbcfLkBg8w0rigGrU-73" value="测&lt;br&gt;试" style="rounded=0;fontSize=14;whiteSpace=wrap;html=1;labelBackgroundColor=none;labelBorderColor=none;" parent="1" vertex="1">
          <mxGeometry x="-13" y="1370" width="30" height="35" as="geometry" />
        </mxCell>
        <mxCell id="fCIBbcfLkBg8w0rigGrU-74" value="1" style="rounded=0;fontSize=14;whiteSpace=wrap;html=1;labelBackgroundColor=none;labelBorderColor=none;" parent="1" vertex="1">
          <mxGeometry x="17" y="1370" width="30" height="35" as="geometry" />
        </mxCell>
        <mxCell id="fCIBbcfLkBg8w0rigGrU-75" value="2" style="rounded=0;fontSize=14;whiteSpace=wrap;html=1;labelBackgroundColor=none;labelBorderColor=none;" parent="1" vertex="1">
          <mxGeometry x="54" y="1370" width="30" height="35" as="geometry" />
        </mxCell>
        <mxCell id="fCIBbcfLkBg8w0rigGrU-76" value="金&lt;br&gt;融" style="rounded=0;fontSize=14;whiteSpace=wrap;html=1;labelBackgroundColor=none;labelBorderColor=none;" parent="1" vertex="1">
          <mxGeometry x="84" y="1370" width="30" height="35" as="geometry" />
        </mxCell>
        <mxCell id="fCIBbcfLkBg8w0rigGrU-77" value="2" style="rounded=0;fontSize=14;whiteSpace=wrap;html=1;labelBackgroundColor=none;labelBorderColor=none;" parent="1" vertex="1">
          <mxGeometry x="-43" y="1470" width="30" height="35" as="geometry" />
        </mxCell>
        <mxCell id="fCIBbcfLkBg8w0rigGrU-78" value="测&lt;br&gt;试" style="rounded=0;fontSize=14;whiteSpace=wrap;html=1;labelBackgroundColor=none;labelBorderColor=none;" parent="1" vertex="1">
          <mxGeometry x="-13" y="1470" width="30" height="35" as="geometry" />
        </mxCell>
        <mxCell id="fCIBbcfLkBg8w0rigGrU-79" value="1" style="rounded=0;fontSize=14;whiteSpace=wrap;html=1;labelBackgroundColor=none;labelBorderColor=none;" parent="1" vertex="1">
          <mxGeometry x="17" y="1470" width="30" height="35" as="geometry" />
        </mxCell>
        <mxCell id="fCIBbcfLkBg8w0rigGrU-80" value="1" style="rounded=0;fontSize=14;whiteSpace=wrap;html=1;labelBackgroundColor=none;labelBorderColor=none;" parent="1" vertex="1">
          <mxGeometry x="54" y="1470" width="30" height="35" as="geometry" />
        </mxCell>
        <mxCell id="fCIBbcfLkBg8w0rigGrU-81" value="软&lt;br&gt;件" style="rounded=0;fontSize=14;whiteSpace=wrap;html=1;labelBackgroundColor=none;labelBorderColor=none;" parent="1" vertex="1">
          <mxGeometry x="84" y="1470" width="30" height="35" as="geometry" />
        </mxCell>
        <mxCell id="fCIBbcfLkBg8w0rigGrU-82" value="3" style="rounded=0;fontSize=14;whiteSpace=wrap;html=1;labelBackgroundColor=none;labelBorderColor=none;" parent="1" vertex="1">
          <mxGeometry x="157" y="1370" width="30" height="35" as="geometry" />
        </mxCell>
        <mxCell id="fCIBbcfLkBg8w0rigGrU-83" value="会&lt;br&gt;计" style="rounded=0;fontSize=14;whiteSpace=wrap;html=1;labelBackgroundColor=none;labelBorderColor=none;" parent="1" vertex="1">
          <mxGeometry x="187" y="1370" width="30" height="35" as="geometry" />
        </mxCell>
        <mxCell id="fCIBbcfLkBg8w0rigGrU-84" value="" style="rounded=0;fontSize=14;whiteSpace=wrap;html=1;labelBackgroundColor=none;labelBorderColor=none;" parent="1" vertex="1">
          <mxGeometry x="217" y="1370" width="30" height="35" as="geometry" />
        </mxCell>
        <mxCell id="fCIBbcfLkBg8w0rigGrU-85" value="2" style="rounded=0;fontSize=14;whiteSpace=wrap;html=1;labelBackgroundColor=none;labelBorderColor=none;" parent="1" vertex="1">
          <mxGeometry x="254" y="1370" width="30" height="35" as="geometry" />
        </mxCell>
        <mxCell id="fCIBbcfLkBg8w0rigGrU-86" value="金&lt;br&gt;融" style="rounded=0;fontSize=14;whiteSpace=wrap;html=1;labelBackgroundColor=none;labelBorderColor=none;" parent="1" vertex="1">
          <mxGeometry x="284" y="1370" width="30" height="35" as="geometry" />
        </mxCell>
        <mxCell id="fCIBbcfLkBg8w0rigGrU-87" value="3" style="rounded=0;fontSize=14;whiteSpace=wrap;html=1;labelBackgroundColor=none;labelBorderColor=none;" parent="1" vertex="1">
          <mxGeometry x="157" y="1470" width="30" height="35" as="geometry" />
        </mxCell>
        <mxCell id="fCIBbcfLkBg8w0rigGrU-88" value="会&lt;br&gt;计" style="rounded=0;fontSize=14;whiteSpace=wrap;html=1;labelBackgroundColor=none;labelBorderColor=none;" parent="1" vertex="1">
          <mxGeometry x="187" y="1470" width="30" height="35" as="geometry" />
        </mxCell>
        <mxCell id="fCIBbcfLkBg8w0rigGrU-89" value="" style="rounded=0;fontSize=14;whiteSpace=wrap;html=1;labelBackgroundColor=none;labelBorderColor=none;" parent="1" vertex="1">
          <mxGeometry x="217" y="1470" width="30" height="35" as="geometry" />
        </mxCell>
        <mxCell id="fCIBbcfLkBg8w0rigGrU-90" value="1" style="rounded=0;fontSize=14;whiteSpace=wrap;html=1;labelBackgroundColor=none;labelBorderColor=none;" parent="1" vertex="1">
          <mxGeometry x="254" y="1470" width="30" height="35" as="geometry" />
        </mxCell>
        <mxCell id="fCIBbcfLkBg8w0rigGrU-91" value="软&lt;br&gt;件" style="rounded=0;fontSize=14;whiteSpace=wrap;html=1;labelBackgroundColor=none;labelBorderColor=none;" parent="1" vertex="1">
          <mxGeometry x="284" y="1470" width="30" height="35" as="geometry" />
        </mxCell>
        <mxCell id="fCIBbcfLkBg8w0rigGrU-92" value="3" style="rounded=0;fontSize=14;whiteSpace=wrap;html=1;labelBackgroundColor=none;labelBorderColor=none;" parent="1" vertex="1">
          <mxGeometry x="157" y="1570" width="30" height="35" as="geometry" />
        </mxCell>
        <mxCell id="fCIBbcfLkBg8w0rigGrU-93" value="会&lt;br&gt;计" style="rounded=0;fontSize=14;whiteSpace=wrap;html=1;labelBackgroundColor=none;labelBorderColor=none;" parent="1" vertex="1">
          <mxGeometry x="187" y="1570" width="30" height="35" as="geometry" />
        </mxCell>
        <mxCell id="fCIBbcfLkBg8w0rigGrU-94" value="" style="rounded=0;fontSize=14;whiteSpace=wrap;html=1;labelBackgroundColor=none;labelBorderColor=none;" parent="1" vertex="1">
          <mxGeometry x="217" y="1570" width="30" height="35" as="geometry" />
        </mxCell>
        <mxCell id="fCIBbcfLkBg8w0rigGrU-95" value="2" style="rounded=0;fontSize=14;whiteSpace=wrap;html=1;labelBackgroundColor=none;labelBorderColor=none;" parent="1" vertex="1">
          <mxGeometry x="-43" y="1570" width="30" height="35" as="geometry" />
        </mxCell>
        <mxCell id="fCIBbcfLkBg8w0rigGrU-96" value="测&lt;br&gt;试" style="rounded=0;fontSize=14;whiteSpace=wrap;html=1;labelBackgroundColor=none;labelBorderColor=none;" parent="1" vertex="1">
          <mxGeometry x="-13" y="1570" width="30" height="35" as="geometry" />
        </mxCell>
        <mxCell id="fCIBbcfLkBg8w0rigGrU-97" value="1" style="rounded=0;fontSize=14;whiteSpace=wrap;html=1;labelBackgroundColor=none;labelBorderColor=none;" parent="1" vertex="1">
          <mxGeometry x="17" y="1570" width="30" height="35" as="geometry" />
        </mxCell>
        <mxCell id="fCIBbcfLkBg8w0rigGrU-98" value="" style="endArrow=none;dashed=1;html=1;dashPattern=12 12;strokeWidth=1;rounded=0;strokeColor=#636363;" parent="1" edge="1">
          <mxGeometry width="50" height="50" relative="1" as="geometry">
            <mxPoint x="-420" y="1411" as="sourcePoint" />
            <mxPoint x="350" y="1411" as="targetPoint" />
          </mxGeometry>
        </mxCell>
        <mxCell id="fCIBbcfLkBg8w0rigGrU-99" value="" style="endArrow=none;dashed=1;html=1;dashPattern=12 12;strokeWidth=1;rounded=0;strokeColor=#636363;" parent="1" edge="1">
          <mxGeometry width="50" height="50" relative="1" as="geometry">
            <mxPoint x="-425" y="1511" as="sourcePoint" />
            <mxPoint x="345" y="1511" as="targetPoint" />
          </mxGeometry>
        </mxCell>
        <mxCell id="fCIBbcfLkBg8w0rigGrU-100" value="" style="endArrow=none;dashed=1;html=1;dashPattern=8 8;strokeWidth=1;rounded=0;strokeColor=#5b5b5b;" parent="1" edge="1">
          <mxGeometry width="50" height="50" relative="1" as="geometry">
            <mxPoint x="-157" y="1620" as="sourcePoint" />
            <mxPoint x="-157" y="1240" as="targetPoint" />
          </mxGeometry>
        </mxCell>
        <mxCell id="fCIBbcfLkBg8w0rigGrU-101" value="专&lt;br style=&quot;font-size: 14px;&quot;&gt;业&lt;br style=&quot;font-size: 14px;&quot;&gt;名&lt;br style=&quot;font-size: 14px;&quot;&gt;称" style="rounded=0;whiteSpace=wrap;html=1;fontSize=14;" parent="1" vertex="1">
          <mxGeometry x="282" y="1280" width="30" height="70" as="geometry" />
        </mxCell>
        <mxCell id="fCIBbcfLkBg8w0rigGrU-102" value="金&lt;br&gt;融" style="rounded=0;fontSize=14;whiteSpace=wrap;html=1;labelBackgroundColor=none;labelBorderColor=none;" parent="1" vertex="1">
          <mxGeometry x="284" y="1370" width="30" height="35" as="geometry" />
        </mxCell>
        <mxCell id="fCIBbcfLkBg8w0rigGrU-103" value="软&lt;br&gt;件" style="rounded=0;fontSize=14;whiteSpace=wrap;html=1;labelBackgroundColor=none;labelBorderColor=none;" parent="1" vertex="1">
          <mxGeometry x="284" y="1470" width="30" height="35" as="geometry" />
        </mxCell>
        <mxCell id="fCIBbcfLkBg8w0rigGrU-104" value="" style="endArrow=none;dashed=1;html=1;dashPattern=8 8;strokeWidth=1;rounded=0;strokeColor=#5b5b5b;" parent="1" edge="1">
          <mxGeometry width="50" height="50" relative="1" as="geometry">
            <mxPoint x="50" y="1620" as="sourcePoint" />
            <mxPoint x="50" y="1240" as="targetPoint" />
          </mxGeometry>
        </mxCell>
        <mxCell id="fCIBbcfLkBg8w0rigGrU-105" value="" style="endArrow=none;dashed=1;html=1;dashPattern=8 8;strokeWidth=1;rounded=0;strokeColor=#5b5b5b;" parent="1" edge="1">
          <mxGeometry width="50" height="50" relative="1" as="geometry">
            <mxPoint x="250" y="1620" as="sourcePoint" />
            <mxPoint x="250" y="1250" as="targetPoint" />
          </mxGeometry>
        </mxCell>
        <mxCell id="fCIBbcfLkBg8w0rigGrU-106" value="t_majors" style="text;html=1;strokeColor=none;fillColor=none;align=center;verticalAlign=middle;whiteSpace=wrap;rounded=0;fontFamily=Lucida Console;" parent="1" vertex="1">
          <mxGeometry x="-340" y="1210" width="60" height="30" as="geometry" />
        </mxCell>
        <mxCell id="fCIBbcfLkBg8w0rigGrU-107" value="t_classes" style="text;html=1;strokeColor=none;fillColor=none;align=center;verticalAlign=middle;whiteSpace=wrap;rounded=0;fontFamily=Lucida Console;" parent="1" vertex="1">
          <mxGeometry x="410" y="1540" width="60" height="30" as="geometry" />
        </mxCell>
      </root>
    </mxGraphModel>
  </diagram>
</mxfile>
